<svg width="40" height="41" fill="none" xmlns="http://www.w3.org/2000/svg"><rect y=".159" width="40" height="40" rx="20" fill="#2893B7"/><path fill-rule="evenodd" clip-rule="evenodd" d="M31.48 20.16L20 8.825 8.52 20.159 20 31.493l11.48-11.334zm-1.813 0L20 10.614l-9.667 9.544L20 29.703l9.667-9.544z" fill="#fff"/><path fill-rule="evenodd" clip-rule="evenodd" d="M20 20.16l-9.667-9.545L.667 20.16l9.666 9.544L20 20.159zm-1.813-.001l-7.854-7.754-7.854 7.754 7.854 7.754 7.854-7.754zm21.146.001l-9.666-9.545L20 20.16l9.667 9.544 9.666-9.544zm-1.812-.001l-7.854-7.754-7.855 7.754 7.855 7.754 7.854-7.754z" fill="#fff"/></svg>